<svg width="21" height="21" viewBox="0 0 21 21" fill="none" xmlns="http://www.w3.org/2000/svg">
<path d="M5.08594 11.3281C4.67663 11.3281 4.28028 11.3828 3.90234 11.4834C1.94312 12.0054 0.500038 13.7915 0.5 15.9141C0.5 18.4468 2.5532 20.5 5.08594 20.5C7.12738 20.5 8.85747 19.165 9.45117 17.3193C9.59362 16.8762 9.67188 16.4046 9.67188 15.9141C9.67187 15.8843 9.6711 15.9042 9.66992 15.8418V15.8398C9.63097 13.3912 7.67331 11.4097 5.23438 11.332L5.23535 11.3311C5.1711 11.3291 5.13086 11.3281 5.08594 11.3281ZM5.08594 12.0508C7.21958 12.0508 8.94921 13.7804 8.94922 15.9141C8.94922 18.0477 7.21958 19.7773 5.08594 19.7773C2.95234 19.7773 1.22266 18.0477 1.22266 15.9141C1.22266 13.7804 2.9523 12.0508 5.08594 12.0508Z" fill="#c1c9cf" stroke="#c1c9cf"/>
<path d="M5.09375 14.1172V15.9219H3.28906V16.0703H5.09375V17.875H5.24219V16.0703H7.04688V15.9219H5.24219V14.1172H5.09375Z" fill="#c1c9cf" stroke="#c1c9cf"/>
<path d="M17.0625 0.5H16.5703C16.5298 0.500002 16.4961 0.533822 16.4961 0.574219V3.28125C16.4961 3.32174 16.5298 3.35547 16.5703 3.35547H17.0625C17.103 3.35547 17.1367 3.32175 17.1367 3.28125V0.574219C17.1367 0.533729 17.103 0.5 17.0625 0.5Z" fill="#c1c9cf" stroke="#c1c9cf"/>
<path d="M8.03906 0.5H7.54688C7.50641 0.500002 7.47266 0.53375 7.47266 0.574219V3.28125C7.47266 3.32174 7.50639 3.35547 7.54688 3.35547H8.03906C8.07955 3.35547 8.11328 3.32173 8.11328 3.28125V0.574219C8.11328 0.533729 8.07955 0.5 8.03906 0.5Z" fill="#c1c9cf" stroke="#c1c9cf"/>
<path d="M19.5234 2.38672H18.957V3.28125C18.957 4.32636 18.1076 5.17578 17.0625 5.17578H16.5703C15.5252 5.17577 14.6758 4.32636 14.6758 3.28125V2.38672H9.93359V3.28125C9.93359 4.32636 9.08418 5.17578 8.03906 5.17578H7.54688C6.50174 5.17576 5.65234 4.32634 5.65234 3.28125V2.38672H5.08594C4.63725 2.38674 4.27344 2.75053 4.27344 3.19922V9.04785C4.43062 9.03243 4.58952 9.02372 4.75 9.01953V5.98047H19.8594V14.3555C19.8594 15.1753 19.1948 15.8398 18.375 15.8398H12.1055C12.1026 16.056 12.0894 16.2696 12.0664 16.4805H19.5234C19.9721 16.4805 20.3359 16.1167 20.3359 15.668V3.19922L20.332 3.11621C20.2905 2.70648 19.9441 2.38672 19.5234 2.38672Z" fill="#c1c9cf" stroke="#c1c9cf"/>
<path d="M16.2109 8.13904C15.768 8.13925 15.4092 8.49878 15.4092 8.94177C15.4094 9.38458 15.7681 9.74332 16.2109 9.74353C16.6539 9.74353 17.0135 9.38472 17.0137 8.94177C17.0137 8.49865 16.6541 8.13904 16.2109 8.13904Z" fill="#c1c9cf" stroke="#c1c9cf"/>
<path d="M12.3043 8.13904C11.8614 8.13925 11.5026 8.49878 11.5026 8.94177C11.5028 9.38458 11.8615 9.74332 12.3043 9.74353C12.7473 9.74353 13.1068 9.38471 13.1071 8.94177C13.1071 8.49865 12.7474 8.13904 12.3043 8.13904Z" fill="#c1c9cf" stroke="#c1c9cf"/>
<path d="M8.39764 8.13904C7.9547 8.13925 7.59589 8.49878 7.59589 8.94177C7.5961 9.38458 7.95483 9.74332 8.39764 9.74353C8.84064 9.74353 9.20017 9.38471 9.20038 8.94177C9.20038 8.49865 8.84077 8.13904 8.39764 8.13904Z" fill="#c1c9cf" stroke="#c1c9cf"/>
<path d="M12.3043 12.0765C11.8614 12.0768 11.5025 12.4363 11.5025 12.8793C11.5027 13.322 11.8615 13.6808 12.3043 13.681C12.7472 13.681 13.1068 13.3222 13.107 12.8793C13.107 12.4362 12.7474 12.0765 12.3043 12.0765Z" fill="#c1c9cf" stroke="#c1c9cf"/>
<path d="M16.2109 12.0765C15.768 12.0768 15.4092 12.4363 15.4092 12.8793C15.4094 13.322 15.7682 13.6808 16.2109 13.681C16.6539 13.681 17.0134 13.3222 17.0137 12.8793C17.0137 12.4362 16.654 12.0765 16.2109 12.0765Z" fill="#c1c9cf" stroke="#c1c9cf"/>
</svg>
